<?xml version="1.0" encoding="UTF-8"?>
<svg id="_Слой_1" data-name="Слой 1" xmlns="http://www.w3.org/2000/svg" viewBox="0 0 40.5 15.51">
  <defs>
    <style>
      .cls-logo {
        fill: var(--text);
      }
    </style>
  </defs>
  <g>
    <path class="cls-logo" d="m10.65,2.48c.12.12.18.27.18.44v8.04c0,.17-.06.32-.19.44-.13.12-.28.18-.45.18s-.33-.06-.45-.18c-.12-.12-.18-.27-.18-.44v-5.9l-2.97,5.85c-.14.21-.32.31-.55.31-.27,0-.47-.12-.59-.37l-2.93-5.69v5.79c0,.17-.06.32-.18.44-.12.12-.27.18-.45.18s-.33-.06-.45-.18c-.12-.12-.19-.27-.19-.44V2.92c0-.17.06-.32.19-.44.12-.12.27-.18.45-.18.25,0,.43.11.56.33l3.65,7.06,3.55-7.06c.13-.22.32-.33.56-.33.18,0,.33.06.45.18Z"/>
    <path class="cls-logo" d="m20.07,2.47c.1.11.15.25.15.4,0,.13-.04.27-.12.39l-3.3,4.93v2.77c0,.17-.06.32-.18.44-.12.12-.27.18-.45.18s-.32-.06-.44-.18c-.12-.12-.18-.27-.18-.44v-2.77l-3.28-4.93c-.09-.13-.13-.26-.13-.38,0-.17.06-.3.19-.42s.28-.17.45-.17c.13,0,.24.03.32.08.08.06.16.14.25.26l2.87,4.4,2.92-4.45c.13-.2.32-.3.56-.3.16,0,.28.06.39.17Z"/>
    <path class="cls-logo" d="m27.67,10.51c.12.12.18.27.18.44s-.06.32-.18.44c-.12.12-.27.18-.46.18h-5.08c-.18,0-.33-.06-.45-.18-.12-.12-.18-.27-.18-.44V2.92c0-.17.06-.32.19-.44s.27-.18.44-.18.33.06.46.18c.12.12.18.27.18.44v7.42h4.44c.18,0,.33.06.46.18Z"/>
    <path class="cls-logo" d="m30.59,2.69c.16.15.24.34.24.55s-.08.4-.24.55c-.16.15-.35.23-.57.23s-.41-.08-.57-.23c-.16-.15-.24-.34-.24-.55s.08-.4.24-.55c.16-.15.35-.23.57-.23s.41.08.57.23Zm-1.02,2.56c.12-.11.27-.17.45-.17s.34.06.46.17c.11.11.17.26.17.44v5.28c0,.17-.06.32-.17.43-.12.11-.27.17-.46.17s-.33-.06-.45-.17c-.12-.12-.18-.26-.18-.43v-5.28c0-.18.06-.33.18-.44Z"/>
    <path class="cls-logo" d="m33.6,2.3c.18,0,.33.06.45.17.12.11.18.26.18.44v3.21c.29-.34.63-.61,1.04-.8s.85-.28,1.33-.28c.59,0,1.12.14,1.6.43.48.28.86.68,1.13,1.18.27.5.41,1.06.41,1.68s-.15,1.18-.44,1.68c-.29.5-.7.9-1.22,1.19s-1.09.43-1.72.43-1.2-.14-1.71-.43-.92-.68-1.21-1.19c-.3-.5-.45-1.06-.45-1.68V2.91c0-.18.06-.33.17-.44.11-.11.27-.17.45-.17Zm2.75,8.25c.41,0,.78-.1,1.11-.29s.59-.46.79-.8c.19-.34.29-.72.29-1.14s-.1-.8-.29-1.13c-.19-.34-.45-.6-.79-.8s-.7-.29-1.11-.29-.78.1-1.11.29c-.33.19-.59.46-.78.8s-.28.71-.28,1.13.09.8.28,1.14c.19.34.45.61.78.8.33.19.7.29,1.11.29Z"/>
  </g>
  <path class="cls-logo" d="m2.15,0h4v1c0,.55-.45,1-1,1H1.15V1C1.15.45,1.6,0,2.15,0Z"/>
  <path class="cls-logo" d="m36.15,12h4v1c0,.55-.45,1-1,1h-4v-1c0-.55.45-1,1-1Z"/>
</svg>