<?xml version="1.0" encoding="UTF-8"?>
<svg id="_Слой_1" data-name="Слой 1" xmlns="http://www.w3.org/2000/svg" viewBox="0 0 20 20">
  <defs>
    <style>
      .cls-sun {
        fill: var(--text);
      }
    </style>
  </defs>
  <circle class="cls-sun" cx="10" cy="10" r="6"/>
  <rect class="cls-sun" x="9" width="2" height="3" rx="1" ry="1"/>
  <rect class="cls-sun" x="9" y="17" width="2" height="3" rx="1" ry="1"/>
  <rect class="cls-sun" x=".5" y="8.5" width="2" height="3" rx="1" ry="1" transform="translate(-8.5 11.5) rotate(-90)"/>
  <rect class="cls-sun" x="17.5" y="8.5" width="2" height="3" rx="1" ry="1" transform="translate(8.5 28.5) rotate(-90)"/>
  <rect class="cls-sun" x="1.8" y="1.96" width="2" height="3" rx="1" ry="1" transform="translate(-1.63 2.99) rotate(-45)"/>
  <rect class="cls-sun" x="15.82" y="14.98" width="2" height="3" rx="1" ry="1" transform="translate(-6.73 16.72) rotate(-45)"/>
  <rect class="cls-sun" x="15.82" y="1.96" width="2" height="3" rx="1" ry="1" transform="translate(7.37 -10.88) rotate(45)"/>
  <rect class="cls-sun" x="1.8" y="14.98" width="2" height="3" rx="1" ry="1" transform="translate(12.47 2.85) rotate(45)"/>
</svg>