<?xml version="1.0" ?><svg xmlns="http://www.w3.org/2000/svg" xmlns:xlink="http://www.w3.org/1999/xlink" version="1.1" viewBox="0 0 510.003 486.032" style="enable-background:new 0 0 510.003 486.032;" xml:space="preserve"><g id="_x33_4_x2C__Cherry_Blossomm_x2C__sakura_x2C__spring_x2C__tree_x2C__bench_x2C__gardening_x2C__flower_x2C__nature"><g><g><g><path style="fill:#283954;" d="M169.615,235.932c-12.31,2.6-24.384,7.104-35.888,13.388c-4.847,2.648-6.63,8.724-3.982,13.57      c2.654,4.859,8.735,6.623,13.57,3.982c9.792-5.35,20.031-9.176,30.433-11.372c5.403-1.141,8.859-6.446,7.718-11.851      C180.325,238.247,175.023,234.789,169.615,235.932z"/><path style="fill:#283954;" d="M504.542,217.177l-57.131-29.119l29.11-57.121c2.208-4.333,0.978-9.626-2.912-12.543      c-28.718-21.526-67.883-29.392-106.699-21.858c-5.157-41.616-26.195-75.313-53.744-94.711c-3.978-2.801-9.39-2.332-12.829,1.104      l-45.336,45.336L209.666,2.929c-3.439-3.439-8.853-3.904-12.828-1.105c-29.338,20.656-48.921,55.476-53.757,94.723      c-41.096-7.945-79.666,1.599-106.689,21.841c-3.892,2.916-5.123,8.211-2.915,12.544l29.112,57.128L5.461,217.171      c-4.332,2.208-6.449,7.212-5.016,11.857c10.575,34.285,37.639,63.671,73.475,80.404      c-20.293,36.712-23.076,76.326-12.192,108.215c1.571,4.603,6.228,7.403,11.029,6.646l63.322-10.035l10.035,63.323      c0.761,4.802,4.865,8.36,9.726,8.434c37.649,0.586,73.607-17.635,99.177-45.021c25.861,27.667,61.727,45.559,99.143,45.026      c4.862-0.072,8.968-3.632,9.728-8.435l10.032-63.329l63.328,10.033c4.8,0.757,9.457-2.044,11.028-6.646      c11.59-33.95,6.964-73.629-12.193-108.225c6.99-3.263,13.702-7.012,20.058-11.255c4.593-3.066,5.831-9.275,2.764-13.869      c-3.067-4.594-9.275-5.831-13.869-2.764c-36.6,24.433-84.381,29.355-121.422,12.824c-5.044-2.252-10.956,0.013-13.207,5.057      c-2.251,5.043,0.013,10.956,5.057,13.207c30.265,13.507,66.285,15.456,101.798,4.157c15.982,27.537,21.197,58.827,14.433,86.386      l-64.523-10.223c-5.484-0.857-10.581,2.879-11.441,8.313l-10.22,64.517c-32.374-2.442-64.926-21.566-86.566-51.352      c-18.51-25.467-27.393-56.456-24.373-85.021c0.581-5.492-3.4-10.416-8.893-10.996c-5.518-0.596-10.416,3.4-10.996,8.893      c-3.554,33.612,6.218,68.403,27.514,98.08c-21.256,23.704-49.404,38.326-77.706,40.401l-10.225-64.522      c-0.855-5.395-5.916-9.174-11.442-8.311l-64.508,10.224c-9.681-39.762,5.983-84.186,35.459-113.949      c3.886-3.925,3.855-10.256-0.068-14.143c-3.925-3.886-10.255-3.857-14.142,0.068c-5.296,5.348-10.245,11.163-14.744,17.278      c-29.117-12.887-51.727-35.138-62.45-61.416l58.207-29.662c4.921-2.508,6.877-8.53,4.37-13.45l-29.657-58.196      c27.639-17.058,65.213-20.715,100.22-9.334c29.958,9.735,55.36,29.585,69.694,54.459c2.757,4.784,8.87,6.431,13.657,3.671      c4.785-2.757,6.429-8.872,3.671-13.657c-16.867-29.268-45.219-51.672-79.902-63.177c3.256-31.669,17.431-60.047,39.106-78.368      l46.192,46.192c3.906,3.904,10.236,3.904,14.143,0l46.185-46.186c24.759,21.005,39.85,55.608,39.85,92.425      c0,31.49-11.031,61.788-30.265,83.125c-3.698,4.103-3.37,10.425,0.732,14.123c4.119,3.713,10.44,3.353,14.123-0.732      c22.629-25.104,35.175-58.995,35.399-95.524c31.12-6.692,62.486-1.982,86.614,12.977l-29.66,58.198      c-2.507,4.921-0.552,10.942,4.369,13.45l58.21,29.67c-3.685,9.017-8.824,17.646-15.339,25.741      c-3.463,4.303-2.782,10.598,1.521,14.059c4.327,3.483,10.62,2.757,14.06-1.52c9.981-12.402,17.277-25.945,21.686-40.255      C510.99,224.386,508.874,219.384,504.542,217.177z"/></g><g><path style="fill:#DA5461;" d="M255.001,157.115c-51.538,0-93.467,41.929-93.467,93.467s41.929,93.467,93.467,93.467      s93.467-41.929,93.467-93.467S306.54,157.115,255.001,157.115z M255.001,324.048c-40.51,0-73.467-32.957-73.467-73.467      c0-40.51,32.957-73.467,73.467-73.467s73.467,32.957,73.467,73.467C328.468,291.091,295.511,324.048,255.001,324.048z"/><path style="fill:#DA5461;" d="M270.894,212.215c-9.066-8.001-22.712-8.007-31.785,0c-12.072,0.756-21.72,10.4-22.474,22.474      c-8.001,9.066-8.007,22.712,0,31.785c0.753,12.068,10.4,21.72,22.474,22.474c9.066,8.001,22.712,8.007,31.785,0      c12.072-0.756,21.72-10.4,22.474-22.474c8.001-9.066,8.007-22.712,0-31.785C292.614,222.62,282.968,212.969,270.894,212.215z       M277.576,253.935c-3.349,2.245-5.021,6.283-4.241,10.239c0.557,2.823-1.917,5.298-4.74,4.74      c-3.956-0.779-7.994,0.893-10.239,4.241c-1.602,2.388-5.1,2.396-6.707,0c-2.242-3.344-6.274-5.02-10.239-4.241      c-2.821,0.556-5.298-1.914-4.74-4.74c0.779-3.956-0.893-7.994-4.241-10.239c-2.388-1.602-2.395-5.1,0-6.707      c3.349-2.245,5.02-6.283,4.241-10.239c-0.558-2.827,1.919-5.295,4.74-4.74c3.954,0.773,7.993-0.893,10.239-4.241      c1.602-2.388,5.101-2.395,6.707,0c2.245,3.35,6.284,5.018,10.239,4.241c2.812-0.557,5.299,1.909,4.74,4.74      c-0.779,3.956,0.893,7.994,4.241,10.239C279.964,248.83,279.971,252.328,277.576,253.935z"/></g></g></g></g><g id="Layer_1"/></svg>