<?xml version="1.0" ?><svg xmlns="http://www.w3.org/2000/svg" width="24" height="24" viewBox="0 0 24 24" fill="none"><circle cx="12" cy="12" r="9" fill="#FFDB20"/><path d="M7 10.5C7 11.3284 7.67157 12 8.5 12C9.32843 12 10 11.3284 10 10.5C10 9.67157 9.32843 9 8.5 9C7.67157 9 7 9.67157 7 10.5Z" fill="#60493C"/><path d="M14 10.5C14 11.3284 14.6716 12 15.5 12C16.3284 12 17 11.3284 17 10.5C17 9.67157 16.3284 9 15.5 9C14.6716 9 14 9.67157 14 10.5Z" fill="#60493C"/><path d="M6.86149 14.2558C6.45003 14.6242 6.41513 15.2564 6.78353 15.6679C8.10254 17.1411 9.98318 18 12 18C14.0164 18 15.8967 17.1414 17.2157 15.6688C17.5842 15.2574 17.5494 14.6252 17.138 14.2567C16.7266 13.8882 16.0944 13.923 15.7259 14.3344C14.7824 15.3878 13.4417 16 12 16C10.558 16 9.21706 15.3876 8.27355 14.3338C7.90515 13.9223 7.27295 13.8874 6.86149 14.2558Z" fill="#60493C"/><path fill-rule="evenodd" clip-rule="evenodd" d="M2 12C2 17.5228 6.47715 22 12 22C17.5228 22 22 17.5228 22 12C22 6.47715 17.5228 2 12 2C6.47715 2 2 6.47715 2 12ZM20 12C20 16.4183 16.4183 20 12 20C7.58172 20 4 16.4183 4 12C4 7.58172 7.58172 4 12 4C16.4183 4 20 7.58172 20 12Z" fill="#60493C"/></svg>